<?xml version="1.0" encoding="UTF-8" standalone="no"?>
<svg
   xmlns:dc="http://purl.org/dc/elements/1.1/"
   xmlns:cc="http://creativecommons.org/ns#"
   xmlns:rdf="http://www.w3.org/1999/02/22-rdf-syntax-ns#"
   xmlns:svg="http://www.w3.org/2000/svg"
   xmlns="http://www.w3.org/2000/svg"
   xmlns:sodipodi="http://sodipodi.sourceforge.net/DTD/sodipodi-0.dtd"
   xmlns:inkscape="http://www.inkscape.org/namespaces/inkscape"
   inkscape:version="1.0 (4035a4f, 2020-05-01)"
   sodipodi:docname="ECOLE LOGOS_FINAL-04.svg"
   version="1.1"
   viewBox="0 0 576 576"
   data-name="Layer 1"
   id="Layer_1">
  <metadata
     id="metadata227">
    <rdf:RDF>
      <cc:Work
         rdf:about="">
        <dc:format>image/svg+xml</dc:format>
        <dc:type
           rdf:resource="http://purl.org/dc/dcmitype/StillImage" />
        <dc:title>ECOLE LOGOS_FINAL</dc:title>
      </cc:Work>
    </rdf:RDF>
  </metadata>
  <sodipodi:namedview
     inkscape:current-layer="Layer_1"
     inkscape:window-maximized="0"
     inkscape:window-y="24"
     inkscape:window-x="212"
     inkscape:cy="288"
     inkscape:cx="288"
     inkscape:zoom="1.2760417"
     showgrid="false"
     id="namedview225"
     inkscape:window-height="773"
     inkscape:window-width="1307"
     inkscape:pageshadow="2"
     inkscape:pageopacity="0"
     guidetolerance="10"
     gridtolerance="10"
     objecttolerance="10"
     borderopacity="1"
     bordercolor="#666666"
     pagecolor="#ffffff" />
  <defs
     id="defs12">
    <style
       id="style10">.cls-1{fill:#f68b1f;}.cls-10,.cls-2,.cls-4{fill:#391510;}.cls-11,.cls-2{stroke:#fff;}.cls-11,.cls-12,.cls-2{stroke-miterlimit:10;stroke-width:2px;}.cls-3{fill:#9b8a81;}.cls-5{fill:#6d4a3a;}.cls-6{fill:#e9e9e9;}.cls-7{fill:#a6a6a6;}.cls-8,.cls-9{fill:#fff;}.cls-9{font-size:60px;font-family:SecularOne-Regular, Secular One;}.cls-10{font-size:21px;font-family:Poppins-SemiBold, Poppins;font-weight:700;}.cls-11,.cls-12{fill:none;}.cls-12{stroke:#391510;stroke-linecap:round;}</style>
  </defs>
  <title
     id="title14">ECOLE LOGOS_FINAL</title>
  <path
     class="cls-1"
     d="m 451.35001,277.92999 a 175.62,175.62 0 0 1 -175.62,175.62 175.62,175.62 0 0 1 -175.61999,-175.62 175.62,175.62 0 0 1 175.61999,-175.61999 175.62,175.62 0 0 1 175.62,175.61999"
     style="fill:#f68b1f"
     id="circle16" />
  <path
     class="cls-2"
     d="m 217.23,224.59 h 126 v 40.9 h -126 z"
     style="fill:#391510;stroke:#ffffff;stroke-width:2px;stroke-miterlimit:10"
     id="rect18" />
  <path
     id="path20"
     d="M307,248.55a81.51,81.51,0,0,0-26.33,4.36A81.63,81.63,0,0,0,188,282.54l74.63,66.33s72,18,72,9c0-7.33,23.89-62.44,32.75-82.62A81.45,81.45,0,0,0,307,248.55Z"
     class="cls-3" />
  <path
     id="path22"
     d="M272,293.89c8.26-19.27,35.11-24.68,39.34-25.53,39.65-7.93,70.37,24.19,74.27,28.41,14.69,15.86,20.69,34,23,48.21-16.11-1.89-34.81,1.23-52.8,9.91a103.38,103.38,0,0,0-31.35,23C280.73,355.31,262.14,317,272,293.89Z"
     class="cls-3" />
  <path
     id="path24"
     d="M288.15,294.11c-8.26-19.27-35.11-24.68-39.34-25.53-39.65-7.93-70.37,24.19-74.27,28.41-14.69,15.86-20.69,34-23,48.21,16.11-1.89,34.81,1.23,52.8,9.91a103.38,103.38,0,0,1,31.35,23C279.46,355.53,298.06,317.23,288.15,294.11Z"
     class="cls-3" />
  <path
     id="path26"
     d="M266.08,401.08s11.72,20.88,26.38.45c0,0-6.46-4.72-13-5.73C274.17,395,267.32,400.64,266.08,401.08Z"
     class="cls-4" />
  <path
     id="path28"
     d="M272.86,401s5.46,17,14.34-.78c0,0-3.31-3.68-6.84-4.24C277.52,395.55,273.55,400.59,272.86,401Z"
     class="cls-5" />
  <path
     id="path30"
     d="M280.23,338.39c2.7-12.44,18.07-18.76,20.5-19.75,22.71-9.3,44.72,6.3,47.53,8.36a55.61,55.61,0,0,1,18.48,24c-3.15,1.18-6.3,2.5-9.43,4a103.11,103.11,0,0,0-31.89,23.59,56.29,56.29,0,0,0-4.19,3.79C292.49,374,277,353.31,280.23,338.39Z"
     class="cls-5" />
  <path
     id="path32"
     d="M282.71,339.63c-2.7-12.44-18.07-18.76-20.5-19.75-22.71-9.3-44.72,6.3-47.53,8.36a55.61,55.61,0,0,0-18.48,24c3.15,1.18,6.3,2.5,9.43,4a103.11,103.11,0,0,1,31.89,23.59,56.29,56.29,0,0,1,4.19,3.79C270.45,375.24,286,354.55,282.71,339.63Z"
     class="cls-5" />
  <path
     id="path34"
     d="M280.23,354.48a53.94,53.94,0,0,0-44.66,23.64,51.18,51.18,0,0,0,89.31,0A53.94,53.94,0,0,0,280.23,354.48Z"
     class="cls-6" />
  <path
     class="cls-4"
     d="m 253.23,331.19 a 9,9 0 0 1 -9,9 9,9 0 0 1 -9,-9 9,9 0 0 1 9,-9 9,9 0 0 1 9,9"
     style="fill:#391510"
     id="circle36" />
  <path
     class="cls-7"
     d="m 249.2,328 a 2.9300001,2.9300001 0 0 1 -2.93,2.93 2.9300001,2.9300001 0 0 1 -2.93,-2.93 2.9300001,2.9300001 0 0 1 2.93,-2.93 2.9300001,2.9300001 0 0 1 2.93,2.93"
     style="fill:#a6a6a6"
     id="circle38" />
  <path
     class="cls-4"
     d="m 325.23001,331.19 a 9,9 0 0 1 -9,9 9,9 0 0 1 -9,-9 9,9 0 0 1 9,-9 9,9 0 0 1 9,9"
     style="fill:#391510"
     id="circle40" />
  <path
     class="cls-7"
     d="m 321.19999,328 a 2.9300001,2.9300001 0 0 1 -2.93,2.93 2.9300001,2.9300001 0 0 1 -2.93,-2.93 2.9300001,2.9300001 0 0 1 2.93,-2.93 2.9300001,2.9300001 0 0 1 2.93,2.93"
     style="fill:#a6a6a6"
     id="circle42" />
  <path
     id="path44"
     d="M268.91,376.32,266.15,380a11.63,11.63,0,0,0-2.3,8.24c.63,5.53,3.45,13.57,14.61,13.57H282c11.16,0,14-8,14.61-13.57a11.63,11.63,0,0,0-2.3-8.24l-2.76-3.69a11.84,11.84,0,0,0-9.48-4.75h-3.67A11.84,11.84,0,0,0,268.91,376.32Z"
     class="cls-4" />
  <path
     id="path46"
     d="M298.23,326.51a115.59,115.59,0,0,0-18-52,115.59,115.59,0,0,0-18,52l18,41.63Z"
     class="cls-5" />
  <path
     id="path48"
     d="M236.17,251.36c-11-15.92-33-24.74-55.57-21.27a8.29,8.29,0,0,0-6.83,6.45c-4.77,22.31,1.78,44.06,17,55.94"
     class="cls-3" />
  <path
     id="path50"
     d="M220.42,253.49c-7.69-11.16-22.64-16.61-38.44-14.18a5.81,5.81,0,0,0-4.79,4.52c-3.34,15.63,1.25,30.87,11.94,39.19h1.76a29.53,29.53,0,0,0,29.53-29.53Z"
     class="cls-4" />
  <path
     class="cls-2"
     d="m 280.23,244.48 -108,-27 108,-27 108,27 z"
     style="fill:#391510;stroke:#ffffff;stroke-width:2px;stroke-miterlimit:10"
     id="polygon52" />
  <path
     class="cls-8"
     d="m 284.73001,217.39999 a 4.5,3.1700001 0 0 1 -4.5,3.17 4.5,3.1700001 0 0 1 -4.5,-3.17 4.5,3.1700001 0 0 1 4.5,-3.17 4.5,3.1700001 0 0 1 4.5,3.17"
     style="fill:#ffffff"
     id="ellipse54" />
  <path
     class="cls-3"
     d="m 186.27,265.62 -10.84,-1.91 v -4.01 z"
     style="fill:#9b8a81"
     id="polygon56" />
  <path
     class="cls-3"
     d="m 391,307.73 9.53,-6.12 -16.49,-3.85 z"
     style="fill:#9b8a81"
     id="polygon58" />
  <path
     class="cls-3"
     d="m 174,301.45 0.63,13.53 -21.26,-8.37 z"
     style="fill:#9b8a81"
     id="polygon60" />
  <path
     class="cls-3"
     d="m 163.1,316.36 6.78,12.26 -23.03,-3.11 z"
     style="fill:#9b8a81"
     id="polygon62" />
  <path
     class="cls-3"
     d="m 394.57,314.32 9.53,-6.12 -16.48,-3.85 z"
     style="fill:#9b8a81"
     id="polygon64" />
  <path
     class="cls-3"
     d="m 396.7,319.95 9.53,-6.12 -16.49,-3.85 z"
     style="fill:#9b8a81"
     id="polygon66" />
  <path
     id="path68"
     d="M317.52,253c11-15.92,32.32-23.71,54.86-20.24a8.29,8.29,0,0,1,6.83,6.45c4.77,22.31-1.78,44.06-17,55.94"
     class="cls-3" />
  <path
     id="path70"
     d="M331.34,251.65c7.12-11,23.27-15,37.85-12.41,2.19.39,4.65,4.64,4.67,9.51.07,15.86-2.49,30.77-12.38,38.89l-1.63,0c-15.06-.22-32.93-16.07-30.56-30.95Z"
     class="cls-4" />
  <path
     class="cls-3"
     d="m 375.08,245.3 -8.11,4.29 9.96,-13.94 z"
     style="fill:#9b8a81"
     id="polygon72" />
  <path
     class="cls-3"
     d="m 375.94,267.42 12.29,-5 -26.12,0.38 z"
     style="fill:#9b8a81"
     id="polygon74" />
  <path
     class="cls-3"
     d="m 174.13,250.62 13.5,4.33 -13.33,0.26 z"
     style="fill:#9b8a81"
     id="polygon76" />
  <path
     class="cls-3"
     d="m 374.66,264.75 12.96,-8.08 -12.06,0.57 z"
     style="fill:#9b8a81"
     id="polygon78" />
  <g
     class="cls-9"
     style="font-size:60px;font-family:SecularOne-Regular, 'Secular One';fill:#ffffff"
     id="text80"
     transform="translate(193.98 188.53) rotate(-31.46)"
     aria-label="E">
    <path
       id="path247"
       style="font-size:60px;font-family:SecularOne-Regular, 'Secular One';fill:#ffffff"
       d="M 34.599609,0 H 5.859375 v -43.623047 h 28.740234 v 5.15625 H 11.660156 v 11.953125 h 22.939453 v 5.15625 H 11.660156 V -5.15625 h 22.939453 z" />
  </g>
  <g
     class="cls-9"
     style="font-size:60px;font-family:SecularOne-Regular, 'Secular One';fill:#ffffff"
     id="text82"
     transform="translate(223.66 170.53) rotate(-16.21)"
     aria-label="C">
    <path
       id="path250"
       style="font-size:60px;font-family:SecularOne-Regular, 'Secular One';fill:#ffffff"
       d="m 39.550781,-3.1640625 q -1.611328,0.703125 -2.929687,1.3183594 -1.289063,0.6152344 -3.398438,1.28906248 Q 31.435547,0 29.326172,0.38085938 q -2.080078,0.41015624 -4.59961,0.41015624 -4.746093,0 -8.642578,-1.31835937 Q 12.216797,-1.875 9.3457031,-4.7167969 6.5332031,-7.5 4.9511719,-11.777344 q -1.5820313,-4.30664 -1.5820313,-9.990234 0,-5.390625 1.5234375,-9.638672 1.5234375,-4.248047 4.3945313,-7.177734 2.7832036,-2.841797 6.7089846,-4.335938 3.955078,-1.49414 8.759765,-1.49414 3.515625,0 7.001953,0.849609 3.515625,0.849609 7.792969,2.988281 v 6.884766 h -0.439453 q -3.603516,-3.017578 -7.148437,-4.394531 -3.544922,-1.376954 -7.587891,-1.376954 -3.310547,0 -5.976563,1.083985 -2.636718,1.054687 -4.716796,3.310547 -2.021485,2.197265 -3.164063,5.566406 -1.1132811,3.339844 -1.1132811,7.734375 0,4.599609 1.2304691,7.910156 1.259765,3.310547 3.222656,5.3906251 2.050781,2.1679688 4.77539,3.2226563 2.753907,1.0253906 5.800782,1.0253906 4.189453,0 7.851562,-1.4355469 3.66211,-1.4355468 6.855469,-4.3066406 h 0.410156 z" />
  </g>
  <g
     class="cls-9"
     style="font-size:60px;font-family:SecularOne-Regular, 'Secular One';fill:#ffffff"
     id="text84"
     transform="matrix(1, 0.02, -0.02, 1, 260.3, 159.6)"
     aria-label="O">
    <path
       id="path253"
       style="font-size:60px;font-family:SecularOne-Regular, 'Secular One';fill:#ffffff"
       d="m 38.378906,-38.613281 q 2.666016,2.929687 4.072266,7.177734 1.435547,4.248047 1.435547,9.638672 0,5.390625 -1.464844,9.667969 -1.435547,4.2480466 -4.042969,7.0898435 -2.695312,2.9589844 -6.386719,4.453125 -3.662109,1.49414063 -8.378906,1.49414063 -4.599609,0 -8.378906,-1.5234375 -3.75,-1.52343753 -6.3867187,-4.42382813 -2.6367188,-2.9003906 -4.0722657,-7.1191405 -1.40625,-4.21875 -1.40625,-9.638672 0,-5.332031 1.40625,-9.550781 1.40625,-4.248047 4.1015625,-7.265625 2.5781249,-2.871094 6.3867189,-4.394531 3.83789,-1.523438 8.349609,-1.523438 4.6875,0 8.408203,1.552734 3.75,1.523438 6.357422,4.365235 z m -0.527344,16.816406 q 0,-8.496094 -3.808593,-13.095703 -3.808594,-4.628906 -10.400391,-4.628906 -6.650391,0 -10.458984,4.628906 -3.7792971,4.599609 -3.7792971,13.095703 0,8.583984 3.8671871,13.1542969 3.867188,4.5410156 10.371094,4.5410156 6.503906,0 10.341797,-4.5410156 3.867187,-4.5703129 3.867187,-13.1542969 z" />
  </g>
  <g
     class="cls-9"
     style="font-size:60px;font-family:SecularOne-Regular, 'Secular One';fill:#ffffff"
     id="text86"
     transform="translate(307.9 162.27) rotate(17.89)"
     aria-label="L">
    <path
       id="path256"
       style="font-size:60px;font-family:SecularOne-Regular, 'Secular One';fill:#ffffff"
       d="M 33.457031,0 H 5.859375 v -43.623047 h 5.800781 V -5.15625 h 21.796875 z" />
  </g>
  <g
     class="cls-9"
     style="font-size:60px;font-family:SecularOne-Regular, 'Secular One';fill:#ffffff"
     id="text88"
     transform="translate(338.99 172.6) rotate(32.12)"
     aria-label="E">
    <path
       id="path259"
       style="font-size:60px;font-family:SecularOne-Regular, 'Secular One';fill:#ffffff"
       d="M 34.599609,0 H 5.859375 v -43.623047 h 28.740234 v 5.15625 H 11.660156 v 11.953125 h 22.939453 v 5.15625 H 11.660156 V -5.15625 h 22.939453 z" />
  </g>
  <g
     class="cls-10"
     style="font-weight:700;font-size:21px;font-family:Poppins-SemiBold, Poppins;fill:#391510"
     id="text90"
     transform="translate(73.71 231.66) rotate(101.1)"
     aria-label="E">
    <path
       id="path262"
       style="font-weight:700;font-size:21px;font-family:Poppins-SemiBold, Poppins;fill:#391510"
       d="M 12.991699,0 H 1.9482422 V -15.268066 H 12.991699 v 2.953125 H 5.8652344 v 2.6352535 h 6.6137696 v 2.953125 H 5.8652344 v 3.7734375 h 7.1264646 z" />
  </g>
  <g
     class="cls-10"
     style="font-weight:700;font-size:21px;font-family:Poppins-SemiBold, Poppins;fill:#391510"
     id="text92"
     transform="translate(71.27 244.39) rotate(97.55)"
     aria-label="x">
    <path
       id="path265"
       style="font-weight:700;font-size:21px;font-family:Poppins-SemiBold, Poppins;fill:#391510"
       d="M 13.78125,0 H 9.4746094 L 7.0136719,-3.4453125 4.4912109,0 H 0.26660156 L 4.809082,-5.7524414 0.33837891,-11.515137 H 4.6450195 l 2.4199219,3.3837893 2.4301758,-3.3837893 H 13.72998 l -4.4809566,5.6704104 z" />
  </g>
  <g
     class="cls-10"
     style="font-weight:700;font-size:21px;font-family:Poppins-SemiBold, Poppins;fill:#391510"
     id="text94"
     transform="matrix(-0.08, 1, -1, -0.08, 69.64, 257.32)"
     aria-label="t">
    <path
       id="path268"
       style="font-weight:700;font-size:21px;font-family:Poppins-SemiBold, Poppins;fill:#391510"
       d="m 9.1054688,-0.10253906 q -0.5947266,0.15380859 -1.2612305,0.23583984 -0.6665039,0.0922852 -1.6303711,0.0922852 -2.1533203,0 -3.2094727,-0.87158203 Q 1.9584961,-1.5175781 1.9584961,-3.6298828 V -9.0131836 H 0.44091797 V -11.515137 H 1.9584961 v -3.291504 h 3.6914062 v 3.291504 h 3.4555665 v 2.5019534 H 5.6499023 v 4.0810547 q 0,0.6049805 0.010254,1.0561523 0.010254,0.4511719 0.1640625,0.8100586 0.1435547,0.3588867 0.5024415,0.5742188 0.3691406,0.2050781 1.0664062,0.2050781 0.2871094,0 0.7485352,-0.1230469 0.4716797,-0.1230468 0.65625,-0.2255859 h 0.3076172 z" />
  </g>
  <g
     class="cls-10"
     style="font-weight:700;font-size:21px;font-family:Poppins-SemiBold, Poppins;fill:#391510"
     id="text96"
     transform="translate(68.86 267.09) rotate(91.21)"
     aria-label="e">
    <path
       id="path271"
       style="font-weight:700;font-size:21px;font-family:Poppins-SemiBold, Poppins;fill:#391510"
       d="M 13.083984,-5.0756836 H 4.6347656 q 0.082031,1.3535156 1.0253906,2.0712891 0.9536133,0.7177734 2.7993165,0.7177734 1.1689453,0 2.2661133,-0.4204102 1.097168,-0.4204101 1.73291,-0.9023437 h 0.410156 v 2.96337891 q -1.250976,0.5024414 -2.358398,0.72802734 -1.107422,0.22558594 -2.4506837,0.22558594 -3.4658203,0 -5.3115234,-1.55859379 -1.84570315,-1.5585937 -1.84570315,-4.4399414 0,-2.8505859 1.74316405,-4.511719 1.753418,-1.671386 4.7988281,-1.671386 2.8095701,0 4.2246091,1.425293 1.415039,1.4150386 1.415039,4.0810542 z M 9.4130859,-7.2392578 q -0.030762,-1.1586914 -0.5742187,-1.7431641 -0.543457,-0.5844726 -1.6918945,-0.5844726 -1.0664063,0 -1.753418,0.5537109 -0.6870117,0.5537109 -0.769043,1.7739258 z" />
  </g>
  <g
     class="cls-10"
     style="font-weight:700;font-size:21px;font-family:Poppins-SemiBold, Poppins;fill:#391510"
     id="text98"
     transform="matrix(0.05, 1, -1, 0.05, 68.59, 281.89)"
     aria-label="n">
    <path
       id="path274"
       style="font-weight:700;font-size:21px;font-family:Poppins-SemiBold, Poppins;fill:#391510"
       d="M 13.30957,0 H 9.5976563 v -5.7114258 q 0,-0.6972656 -0.071777,-1.3842773 Q 9.4541016,-7.7929687 9.2797852,-8.1210938 9.074707,-8.5004883 8.6748047,-8.6748047 8.2851563,-8.8491211 7.5776367,-8.8491211 q -0.5024414,0 -1.0253906,0.1640625 -0.5126953,0.1640625 -1.1176758,0.5229492 V 0 H 1.7431641 v -11.515137 h 3.6914062 v 1.271485 q 0.984375,-0.769043 1.8867188,-1.1792 0.9125976,-0.410156 2.0200195,-0.410156 1.8662114,0 2.9121094,1.086914 1.056152,1.0869143 1.056152,3.2504885 z" />
  </g>
  <g
     class="cls-10"
     style="font-weight:700;font-size:21px;font-family:Poppins-SemiBold, Poppins;fill:#391510"
     id="text100"
     transform="translate(69.49 297.6) rotate(83.16)"
     aria-label="s">
    <path
       id="path277"
       style="font-weight:700;font-size:21px;font-family:Poppins-SemiBold, Poppins;fill:#391510"
       d="m 11.750977,-3.6503906 q 0,1.7841797 -1.59961,2.88134763 -1.5996092,1.08691406 -4.3784178,1.08691406 -1.5380859,0 -2.7890625,-0.28710937 Q 1.7329102,-0.25634766 0.97412109,-0.60498047 V -3.6401367 H 1.3125 q 0.2768555,0.1948242 0.6357422,0.430664 0.3691406,0.225586 1.0356445,0.4921875 0.5742188,0.2358399 1.3022461,0.4101563 0.7280274,0.1640625 1.5585938,0.1640625 1.086914,0 1.6098632,-0.2358399 0.5229493,-0.2460937 0.5229493,-0.7177734 0,-0.4204101 -0.3076172,-0.6049805 Q 7.3623047,-3.8964844 6.5009766,-4.0708008 6.0908203,-4.1630859 5.3833008,-4.265625 4.6860352,-4.378418 4.1118164,-4.5322266 2.5429688,-4.9423828 1.7841797,-5.8037109 1.0253906,-6.675293 1.0253906,-7.9672852 q 0,-1.6611328 1.5688477,-2.7583008 1.5791015,-1.107422 4.3066406,-1.107422 1.2919922,0 2.4711914,0.266602 1.1894527,0.256347 1.8559567,0.553711 v 2.9121091 H 10.910156 Q 10.089844,-8.6645508 9.0336914,-9.0131836 7.987793,-9.3720703 6.9111328,-9.3720703 q -0.8920898,0 -1.5073242,0.2460937 -0.6049805,0.2460938 -0.6049805,0.6972657 0,0.4101562 0.2768555,0.6254882 0.2768555,0.2153321 1.3022461,0.4306641 0.5639648,0.112793 1.2099609,0.2255859 0.65625,0.1025391 1.3125,0.2666016 1.4560544,0.3793945 2.1533204,1.199707 0.697266,0.8100586 0.697266,2.0302735 z" />
  </g>
  <g
     class="cls-10"
     style="font-weight:700;font-size:21px;font-family:Poppins-SemiBold, Poppins;fill:#391510"
     id="text102"
     transform="translate(71.16 310.6) rotate(80.35)"
     aria-label="i">
    <path
       id="path280"
       style="font-weight:700;font-size:21px;font-family:Poppins-SemiBold, Poppins;fill:#391510"
       d="M 5.4345703,0 H 1.7431641 V -11.515137 H 5.4345703 Z M 5.5371094,-13.155762 H 1.640625 v -2.799316 h 3.8964844 z" />
  </g>
  <g
     class="cls-10"
     style="font-weight:700;font-size:21px;font-family:Poppins-SemiBold, Poppins;fill:#391510"
     id="text104"
     transform="matrix(0.22, 0.97, -0.97, 0.22, 72.36, 318.08)"
     aria-label="b">
    <path
       id="path283"
       style="font-weight:700;font-size:21px;font-family:Poppins-SemiBold, Poppins;fill:#391510"
       d="m 13.760742,-5.9165039 q 0,2.7172851 -1.507324,4.4296875 -1.49707,1.71240234 -3.7426758,1.71240234 -0.9638672,0 -1.6918945,-0.20507813 Q 6.0908203,-0.18457031 5.4345703,-0.57421875 L 5.2807617,0 H 1.7431641 v -15.955078 h 3.6914062 v 5.639648 q 0.8510742,-0.676758 1.7329102,-1.097168 0.8920898,-0.42041 2.0507812,-0.42041 2.1840823,0 3.3632813,1.579102 1.179199,1.5688474 1.179199,4.3374021 z m -3.804199,0.071777 q 0,-1.5380859 -0.5229492,-2.3686523 -0.5229493,-0.8305664 -1.866211,-0.8305664 -0.5229492,0 -1.0766601,0.1640625 -0.553711,0.1538086 -1.0561524,0.4511719 v 5.7832031 q 0.3999024,0.1435547 0.7587891,0.1948242 0.3588867,0.05127 0.8613281,0.05127 1.4663086,0 2.184082,-0.8613281 0.7177735,-0.8613281 0.7177735,-2.5839844 z" />
  </g>
  <g
     class="cls-10"
     style="font-weight:700;font-size:21px;font-family:Poppins-SemiBold, Poppins;fill:#391510"
     id="text106"
     transform="translate(76.08 333.59) rotate(73.9)"
     aria-label="l">
    <path
       id="path286"
       style="font-weight:700;font-size:21px;font-family:Poppins-SemiBold, Poppins;fill:#391510"
       d="M 5.4345703,0 H 1.7431641 v -15.955078 h 3.6914062 z" />
  </g>
  <g
     class="cls-10"
     style="font-weight:700;font-size:21px;font-family:Poppins-SemiBold, Poppins;fill:#391510"
     id="text108"
     transform="translate(78.13 340.87) rotate(70.85)"
     aria-label="e">
    <path
       id="path289"
       style="font-weight:700;font-size:21px;font-family:Poppins-SemiBold, Poppins;fill:#391510"
       d="M 13.083984,-5.0756836 H 4.6347656 q 0.082031,1.3535156 1.0253906,2.0712891 0.9536133,0.7177734 2.7993165,0.7177734 1.1689453,0 2.2661133,-0.4204102 1.097168,-0.4204101 1.73291,-0.9023437 h 0.410156 v 2.96337891 q -1.250976,0.5024414 -2.358398,0.72802734 -1.107422,0.22558594 -2.4506837,0.22558594 -3.4658203,0 -5.3115234,-1.55859379 -1.84570315,-1.5585937 -1.84570315,-4.4399414 0,-2.8505859 1.74316405,-4.511719 1.753418,-1.671386 4.7988281,-1.671386 2.8095701,0 4.2246091,1.425293 1.415039,1.4150386 1.415039,4.0810542 z M 9.4130859,-7.2392578 q -0.030762,-1.1586914 -0.5742187,-1.7431641 -0.543457,-0.5844726 -1.6918945,-0.5844726 -1.0664063,0 -1.753418,0.5537109 -0.6870117,0.5537109 -0.769043,1.7739258 z" />
  </g>
  <text
     id="text110"
     transform="matrix(0.38, 0.93, -0.93, 0.38, 83.07, 354.65)"
     class="cls-10" />
  <g
     class="cls-10"
     style="font-weight:700;font-size:21px;font-family:Poppins-SemiBold, Poppins;fill:#391510"
     id="text112"
     transform="translate(85.5 360.94) rotate(64.58)"
     aria-label="C">
    <path
       id="path292"
       style="font-weight:700;font-size:21px;font-family:Poppins-SemiBold, Poppins;fill:#391510"
       d="m 8.8491211,0.29736328 q -1.7021484,0 -3.1479492,-0.50244141 Q 4.265625,-0.70751953 3.2299805,-1.7021484 2.1943359,-2.6967773 1.6201172,-4.1835937 1.0561523,-5.6704102 1.0561523,-7.6186523 q 0,-1.8149415 0.5434571,-3.2915037 0.543457,-1.476563 1.5791015,-2.532715 0.9946289,-1.015137 2.4609375,-1.568848 1.4765625,-0.553711 3.2197266,-0.553711 0.9638672,0 1.73291,0.112793 0.779297,0.102539 1.435547,0.276856 0.687012,0.194824 1.240723,0.440918 0.563965,0.23584 0.984375,0.440918 v 3.70166 h -0.451172 q -0.28711,-0.246094 -0.728028,-0.584473 -0.430664,-0.338379 -0.984375,-0.666504 -0.563964,-0.328125 -1.220214,-0.553711 -0.65625,-0.225586 -1.4047855,-0.225586 -0.8305664,0 -1.5791016,0.266602 -0.7485352,0.256348 -1.3842773,0.861328 -0.6049805,0.584473 -0.984375,1.5483399 -0.3691407,0.9638672 -0.3691407,2.3378907 0,1.4355468 0.3999024,2.399414 0.4101562,0.9638672 1.0253906,1.5175781 0.6254883,0.5639649 1.3945313,0.8100586 0.7690429,0.2358399 1.5175781,0.2358399 0.7177737,0 1.4150387,-0.215332 0.70752,-0.2153321 1.302246,-0.5844727 0.502442,-0.2973633 0.933106,-0.6357422 0.430664,-0.3383789 0.707519,-0.5844726 h 0.410157 v 3.6503906 q -0.574219,0.25634764 -1.097168,0.48193358 -0.522949,0.22558593 -1.097168,0.38964843 -0.748535,0.21533203 -1.404785,0.328125 -0.6562504,0.11279297 -1.8046879,0.11279297 z" />
  </g>
  <g
     class="cls-10"
     style="font-weight:700;font-size:21px;font-family:Poppins-SemiBold, Poppins;fill:#391510"
     id="text114"
     transform="translate(93.38 377.21) rotate(60.02)"
     aria-label="o">
    <path
       id="path295"
       style="font-weight:700;font-size:21px;font-family:Poppins-SemiBold, Poppins;fill:#391510"
       d="m 13.514648,-5.7524414 q 0,2.840332 -1.661132,4.480957 -1.650879,1.63037112 -4.6450199,1.63037112 -2.9941406,0 -4.6552734,-1.63037112 -1.65087895,-1.640625 -1.65087895,-4.480957 0,-2.8608399 1.66113285,-4.4912106 1.6713867,-1.630371 4.6450195,-1.630371 3.0146489,0 4.6552739,1.640625 1.650878,1.6406246 1.650878,4.4809566 z m -4.54248,2.7993164 q 0.3588867,-0.440918 0.5332031,-1.0561523 0.1845703,-0.6254883 0.1845703,-1.7226563 0,-1.0151367 -0.1845703,-1.7021484 Q 9.3208008,-8.1210938 8.9926758,-8.53125 8.6645508,-8.9516602 8.203125,-9.1259766 7.7416992,-9.300293 7.2084961,-9.300293 q -0.5332031,0 -0.9536133,0.1435547 -0.4101562,0.1435547 -0.7895508,0.5742188 -0.3383789,0.3999023 -0.543457,1.0971679 -0.1948242,0.6972657 -0.1948242,1.753418 0,0.9433594 0.1743164,1.640625 0.1743164,0.6870117 0.5126953,1.1074219 0.328125,0.3999023 0.7792969,0.5844726 0.4614258,0.1845703 1.0458984,0.1845703 0.5024414,0 0.9536133,-0.1640625 0.4614258,-0.1743164 0.7792969,-0.5742187 z" />
  </g>
  <g
     class="cls-10"
     style="font-weight:700;font-size:21px;font-family:Poppins-SemiBold, Poppins;fill:#391510"
     id="text116"
     transform="translate(101.03 390.68) rotate(54.66)"
     aria-label="m">
    <path
       id="path298"
       style="font-weight:700;font-size:21px;font-family:Poppins-SemiBold, Poppins;fill:#391510"
       d="M 13.001953,-8.1621094 V 0 H 9.2900391 v -5.7524414 q 0,-0.8408203 -0.041016,-1.425293 Q 9.2080078,-7.7724609 9.0234375,-8.1416016 8.8388672,-8.5107422 8.4594727,-8.6748047 8.090332,-8.8491211 7.4135742,-8.8491211 q -0.543457,0 -1.0561523,0.2255859 -0.5126953,0.2153321 -0.9228516,0.4614258 V 0 H 1.7431641 v -11.515137 h 3.6914062 v 1.271485 q 0.9536133,-0.748536 1.8251953,-1.168946 0.8715821,-0.42041 1.9277344,-0.42041 1.138184,0 2.009766,0.512695 0.871582,0.502442 1.363769,1.4868169 1.107422,-0.9331059 2.15332,-1.4663089 1.045899,-0.533203 2.050782,-0.533203 1.866211,0 2.830078,1.117676 0.974121,1.1176757 0.974121,3.2197265 V 0 h -3.711914 v -5.7524414 q 0,-0.8510742 -0.04102,-1.4355469 -0.03076,-0.5844726 -0.215332,-0.9536133 -0.174316,-0.3691406 -0.553711,-0.5332031 -0.379394,-0.1743164 -1.066406,-0.1743164 -0.461426,0 -0.902344,0.1640625 -0.440918,0.1538086 -1.07666,0.5229492 z" />
  </g>
  <g
     class="cls-10"
     style="font-weight:700;font-size:21px;font-family:Poppins-SemiBold, Poppins;fill:#391510"
     id="text118"
     transform="matrix(0.65, 0.76, -0.76, 0.65, 115.19, 410.16)"
     aria-label="b">
    <path
       id="path301"
       style="font-weight:700;font-size:21px;font-family:Poppins-SemiBold, Poppins;fill:#391510"
       d="m 13.760742,-5.9165039 q 0,2.7172851 -1.507324,4.4296875 -1.49707,1.71240234 -3.7426758,1.71240234 -0.9638672,0 -1.6918945,-0.20507813 Q 6.0908203,-0.18457031 5.4345703,-0.57421875 L 5.2807617,0 H 1.7431641 v -15.955078 h 3.6914062 v 5.639648 q 0.8510742,-0.676758 1.7329102,-1.097168 0.8920898,-0.42041 2.0507812,-0.42041 2.1840823,0 3.3632813,1.579102 1.179199,1.5688474 1.179199,4.3374021 z m -3.804199,0.071777 q 0,-1.5380859 -0.5229492,-2.3686523 -0.5229493,-0.8305664 -1.866211,-0.8305664 -0.5229492,0 -1.0766601,0.1640625 -0.553711,0.1538086 -1.0561524,0.4511719 v 5.7832031 q 0.3999024,0.1435547 0.7587891,0.1948242 0.3588867,0.05127 0.8613281,0.05127 1.4663086,0 2.184082,-0.8613281 0.7177735,-0.8613281 0.7177735,-2.5839844 z" />
  </g>
  <g
     class="cls-10"
     style="font-weight:700;font-size:21px;font-family:Poppins-SemiBold, Poppins;fill:#391510"
     id="text120"
     transform="translate(125.75 422.13) rotate(46.01)"
     aria-label="i">
    <path
       id="path304"
       style="font-weight:700;font-size:21px;font-family:Poppins-SemiBold, Poppins;fill:#391510"
       d="M 5.4345703,0 H 1.7431641 V -11.515137 H 5.4345703 Z M 5.5371094,-13.155762 H 1.640625 v -2.799316 h 3.8964844 z" />
  </g>
  <g
     class="cls-10"
     style="font-weight:700;font-size:21px;font-family:Poppins-SemiBold, Poppins;fill:#391510"
     id="text122"
     transform="translate(130.96 427.62) rotate(42.88)"
     aria-label="n">
    <path
       id="path307"
       style="font-weight:700;font-size:21px;font-family:Poppins-SemiBold, Poppins;fill:#391510"
       d="M 13.30957,0 H 9.5976563 v -5.7114258 q 0,-0.6972656 -0.071777,-1.3842773 Q 9.4541016,-7.7929687 9.2797852,-8.1210938 9.074707,-8.5004883 8.6748047,-8.6748047 8.2851563,-8.8491211 7.5776367,-8.8491211 q -0.5024414,0 -1.0253906,0.1640625 -0.5126953,0.1640625 -1.1176758,0.5229492 V 0 H 1.7431641 v -11.515137 h 3.6914062 v 1.271485 q 0.984375,-0.769043 1.8867188,-1.1792 0.9125976,-0.410156 2.0200195,-0.410156 1.8662114,0 2.9121094,1.086914 1.056152,1.0869143 1.056152,3.2504885 z" />
  </g>
  <g
     class="cls-10"
     style="font-weight:700;font-size:21px;font-family:Poppins-SemiBold, Poppins;fill:#391510"
     id="text124"
     transform="matrix(0.78, 0.62, -0.62, 0.78, 142.56, 438.31)"
     aria-label="a">
    <path
       id="path310"
       style="font-weight:700;font-size:21px;font-family:Poppins-SemiBold, Poppins;fill:#391510"
       d="m 8.7158203,-3.0043945 v -2.3994141 q -0.7485351,0.061523 -1.6201172,0.1743164 -0.871582,0.1025391 -1.3227539,0.2460938 -0.5537109,0.1743164 -0.8510742,0.5126953 -0.2871094,0.328125 -0.2871094,0.871582 0,0.3588867 0.061524,0.5844727 0.061523,0.2255859 0.3076171,0.430664 0.2358399,0.2050781 0.5639649,0.3076172 0.328125,0.092285 1.0253906,0.092285 0.553711,0 1.1176758,-0.225586 0.5742188,-0.2255859 1.0048828,-0.5947265 z m 0,1.7841797 Q 8.418457,-0.99462891 7.9775391,-0.67675781 7.5366211,-0.35888672 7.1469727,-0.17431641 6.6035156,0.07177734 6.019043,0.18457031 5.4345703,0.30761719 4.7373047,0.30761719 q -1.640625,0 -2.7480469,-1.01513672 -1.10742186,-1.01513667 -1.10742186,-2.59423827 0,-1.2612305 0.56396486,-2.0610352 0.5639648,-0.7998047 1.5996094,-1.2612304 1.0253906,-0.4614258 2.5429687,-0.65625 1.5175781,-0.1948243 3.1479492,-0.2871094 v -0.061523 q 0,-0.9536133 -0.7792969,-1.3125001 -0.7792968,-0.3691406 -2.296875,-0.3691406 -0.9125976,0 -1.9482421,0.328125 -1.0356446,0.3178711 -1.4868164,0.4921875 h -0.338379 v -2.7788086 q 0.5844727,-0.153809 1.8969727,-0.358887 1.3227539,-0.215332 2.6455078,-0.215332 3.1479492,0 4.5424808,0.974121 1.404785,0.9638676 1.404785,3.0351566 V 0 H 8.7158203 Z" />
  </g>
  <g
     class="cls-10"
     style="font-weight:700;font-size:21px;font-family:Poppins-SemiBold, Poppins;fill:#391510"
     id="text126"
     transform="matrix(0.82, 0.57, -0.57, 0.82, 155.2, 448.19)"
     aria-label="t">
    <path
       id="path313"
       style="font-weight:700;font-size:21px;font-family:Poppins-SemiBold, Poppins;fill:#391510"
       d="m 9.1054688,-0.10253906 q -0.5947266,0.15380859 -1.2612305,0.23583984 -0.6665039,0.0922852 -1.6303711,0.0922852 -2.1533203,0 -3.2094727,-0.87158203 Q 1.9584961,-1.5175781 1.9584961,-3.6298828 V -9.0131836 H 0.44091797 V -11.515137 H 1.9584961 v -3.291504 h 3.6914062 v 3.291504 h 3.4555665 v 2.5019534 H 5.6499023 v 4.0810547 q 0,0.6049805 0.010254,1.0561523 0.010254,0.4511719 0.1640625,0.8100586 0.1435547,0.3588867 0.5024415,0.5742188 0.3691406,0.2050781 1.0664062,0.2050781 0.2871094,0 0.7485352,-0.1230469 0.4716797,-0.1230468 0.65625,-0.2255859 h 0.3076172 z" />
  </g>
  <g
     class="cls-10"
     style="font-weight:700;font-size:21px;font-family:Poppins-SemiBold, Poppins;fill:#391510"
     id="text128"
     transform="matrix(0.85, 0.52, -0.52, 0.85, 163.28, 453.89)"
     aria-label="o">
    <path
       id="path316"
       style="font-weight:700;font-size:21px;font-family:Poppins-SemiBold, Poppins;fill:#391510"
       d="m 13.514648,-5.7524414 q 0,2.840332 -1.661132,4.480957 -1.650879,1.63037112 -4.6450199,1.63037112 -2.9941406,0 -4.6552734,-1.63037112 -1.65087895,-1.640625 -1.65087895,-4.480957 0,-2.8608399 1.66113285,-4.4912106 1.6713867,-1.630371 4.6450195,-1.630371 3.0146489,0 4.6552739,1.640625 1.650878,1.6406246 1.650878,4.4809566 z m -4.54248,2.7993164 q 0.3588867,-0.440918 0.5332031,-1.0561523 0.1845703,-0.6254883 0.1845703,-1.7226563 0,-1.0151367 -0.1845703,-1.7021484 Q 9.3208008,-8.1210938 8.9926758,-8.53125 8.6645508,-8.9516602 8.203125,-9.1259766 7.7416992,-9.300293 7.2084961,-9.300293 q -0.5332031,0 -0.9536133,0.1435547 -0.4101562,0.1435547 -0.7895508,0.5742188 -0.3383789,0.3999023 -0.543457,1.0971679 -0.1948242,0.6972657 -0.1948242,1.753418 0,0.9433594 0.1743164,1.640625 0.1743164,0.6870117 0.5126953,1.1074219 0.328125,0.3999023 0.7792969,0.5844726 0.4614258,0.1845703 1.0458984,0.1845703 0.5024414,0 0.9536133,-0.1640625 0.4614258,-0.1743164 0.7792969,-0.5742187 z" />
  </g>
  <g
     class="cls-10"
     style="font-weight:700;font-size:21px;font-family:Poppins-SemiBold, Poppins;fill:#391510"
     id="text130"
     transform="translate(176.26 461.73) rotate(28.16)"
     aria-label="r">
    <path
       id="path319"
       style="font-weight:700;font-size:21px;font-family:Poppins-SemiBold, Poppins;fill:#391510"
       d="M 10.089844,-7.9980469 H 9.7617188 q -0.2358399,-0.082031 -0.7587891,-0.1230469 -0.5229492,-0.041016 -0.871582,-0.041016 -0.7895508,0 -1.3945313,0.1025391 -0.6049805,0.1025391 -1.3022461,0.3486328 V 0 H 1.7431641 v -11.515137 h 3.6914062 v 1.6918948 q 1.2202149,-1.0458988 2.1225586,-1.3842778 0.9023438,-0.348632 1.6611328,-0.348632 0.1948242,0 0.440918,0.01025 0.2460937,0.01025 0.4306643,0.03076 z" />
  </g>
  <g
     class="cls-10"
     style="font-weight:700;font-size:21px;font-family:Poppins-SemiBold, Poppins;fill:#391510"
     id="text132"
     transform="translate(185.17 466.44) rotate(25.77)"
     aria-label="i">
    <path
       id="path322"
       style="font-weight:700;font-size:21px;font-family:Poppins-SemiBold, Poppins;fill:#391510"
       d="M 5.4345703,0 H 1.7431641 V -11.515137 H 5.4345703 Z M 5.5371094,-13.155762 H 1.640625 v -2.799316 h 3.8964844 z" />
  </g>
  <g
     class="cls-10"
     style="font-weight:700;font-size:21px;font-family:Poppins-SemiBold, Poppins;fill:#391510"
     id="text134"
     transform="matrix(0.92, 0.38, -0.38, 0.92, 191.97, 469.8)"
     aria-label="a">
    <path
       id="path325"
       style="font-weight:700;font-size:21px;font-family:Poppins-SemiBold, Poppins;fill:#391510"
       d="m 8.7158203,-3.0043945 v -2.3994141 q -0.7485351,0.061523 -1.6201172,0.1743164 -0.871582,0.1025391 -1.3227539,0.2460938 -0.5537109,0.1743164 -0.8510742,0.5126953 -0.2871094,0.328125 -0.2871094,0.871582 0,0.3588867 0.061524,0.5844727 0.061523,0.2255859 0.3076171,0.430664 0.2358399,0.2050781 0.5639649,0.3076172 0.328125,0.092285 1.0253906,0.092285 0.553711,0 1.1176758,-0.225586 0.5742188,-0.2255859 1.0048828,-0.5947265 z m 0,1.7841797 Q 8.418457,-0.99462891 7.9775391,-0.67675781 7.5366211,-0.35888672 7.1469727,-0.17431641 6.6035156,0.07177734 6.019043,0.18457031 5.4345703,0.30761719 4.7373047,0.30761719 q -1.640625,0 -2.7480469,-1.01513672 -1.10742186,-1.01513667 -1.10742186,-2.59423827 0,-1.2612305 0.56396486,-2.0610352 0.5639648,-0.7998047 1.5996094,-1.2612304 1.0253906,-0.4614258 2.5429687,-0.65625 1.5175781,-0.1948243 3.1479492,-0.2871094 v -0.061523 q 0,-0.9536133 -0.7792969,-1.3125001 -0.7792968,-0.3691406 -2.296875,-0.3691406 -0.9125976,0 -1.9482421,0.328125 -1.0356446,0.3178711 -1.4868164,0.4921875 h -0.338379 v -2.7788086 q 0.5844727,-0.153809 1.8969727,-0.358887 1.3227539,-0.215332 2.6455078,-0.215332 3.1479492,0 4.5424808,0.974121 1.404785,0.9638676 1.404785,3.0351566 V 0 H 8.7158203 Z" />
  </g>
  <g
     class="cls-10"
     style="font-weight:700;font-size:21px;font-family:Poppins-SemiBold, Poppins;fill:#391510"
     id="text136"
     transform="translate(206.78 475.77) rotate(19.32)"
     aria-label="l">
    <path
       id="path328"
       style="font-weight:700;font-size:21px;font-family:Poppins-SemiBold, Poppins;fill:#391510"
       d="M 5.4345703,0 H 1.7431641 v -15.955078 h 3.6914062 z" />
  </g>
  <text
     id="text138"
     transform="translate(213.73 478.17) rotate(17.42)"
     class="cls-10" />
  <g
     class="cls-10"
     style="font-weight:700;font-size:21px;font-family:Poppins-SemiBold, Poppins;fill:#391510"
     id="text140"
     transform="matrix(0.97, 0.24, -0.24, 0.97, 220.16, 480.31)"
     aria-label="O">
    <path
       id="path331"
       style="font-weight:700;font-size:21px;font-family:Poppins-SemiBold, Poppins;fill:#391510"
       d="m 16.795898,-7.6289062 q 0,3.6503906 -2.091796,5.8037109 -2.091797,2.14306639 -5.7832036,2.14306639 -3.6811523,0 -5.7729492,-2.14306639 -2.0917969,-2.1533203 -2.0917969,-5.8037109 0,-3.6811528 2.0917969,-5.8139648 2.0917969,-2.143067 5.7729492,-2.143067 3.6708986,0 5.7729496,2.143067 2.10205,2.132812 2.10205,5.8139648 z m -5.219238,3.8657226 q 0.574219,-0.6972656 0.851074,-1.640625 0.276856,-0.9536133 0.276856,-2.2353516 0,-1.3740234 -0.317871,-2.3378906 -0.317871,-0.9638672 -0.830567,-1.5585942 -0.522949,-0.615234 -1.209961,-0.892089 -0.6767574,-0.276856 -1.4150387,-0.276856 -0.7485351,0 -1.415039,0.266602 -0.65625,0.266601 -1.209961,0.881836 -0.5126953,0.574218 -0.8408203,1.5893551 -0.3178711,1.0048828 -0.3178711,2.3378907 0,1.3637695 0.3076172,2.3276367 0.3178711,0.9536133 0.8305664,1.5585937 0.5126953,0.6049805 1.1997071,0.8920899 0.6870117,0.2871093 1.4458007,0.2871093 0.7587891,0 1.4458007,-0.2871093 0.687012,-0.2973633 1.199707,-0.9125977 z" />
  </g>
  <g
     class="cls-10"
     style="font-weight:700;font-size:21px;font-family:Poppins-SemiBold, Poppins;fill:#391510"
     id="text142"
     transform="translate(238.1 484.64) rotate(9.26)"
     aria-label="p">
    <path
       id="path334"
       style="font-weight:700;font-size:21px;font-family:Poppins-SemiBold, Poppins;fill:#391510"
       d="m 13.760742,-5.9165039 q 0,1.425293 -0.440918,2.5942383 -0.430664,1.1689453 -1.138183,1.9277344 -0.738282,0.79980464 -1.671387,1.20996089 -0.9331056,0.41015625 -1.9995118,0.41015625 -0.984375,0 -1.6713867,-0.21533203 Q 6.1523437,-0.19482422 5.4345703,-0.57421875 V 4.2246094 H 1.7431641 V -11.515137 h 3.6914062 v 1.199707 q 0.8510742,-0.676758 1.7329102,-1.097168 0.8920898,-0.42041 2.0507812,-0.42041 2.1533203,0 3.3427733,1.579102 1.199707,1.5791013 1.199707,4.3374021 z m -3.804199,0.071777 q 0,-1.6816406 -0.5742188,-2.4404297 -0.5742187,-0.758789 -1.8149414,-0.758789 -0.5229492,0 -1.0766601,0.1640625 -0.553711,0.1538086 -1.0561524,0.4511719 v 5.793457 q 0.3691406,0.1435547 0.7895508,0.1845703 0.4204101,0.041016 0.8305664,0.041016 1.4663086,0 2.184082,-0.8510742 0.7177735,-0.8613281 0.7177735,-2.5839844 z" />
  </g>
  <g
     class="cls-10"
     style="font-weight:700;font-size:21px;font-family:Poppins-SemiBold, Poppins;fill:#391510"
     id="text144"
     transform="translate(253.93 487.08) rotate(5.75)"
     aria-label="t">
    <path
       id="path337"
       style="font-weight:700;font-size:21px;font-family:Poppins-SemiBold, Poppins;fill:#391510"
       d="m 9.1054688,-0.10253906 q -0.5947266,0.15380859 -1.2612305,0.23583984 -0.6665039,0.0922852 -1.6303711,0.0922852 -2.1533203,0 -3.2094727,-0.87158203 Q 1.9584961,-1.5175781 1.9584961,-3.6298828 V -9.0131836 H 0.44091797 V -11.515137 H 1.9584961 v -3.291504 h 3.6914062 v 3.291504 h 3.4555665 v 2.5019534 H 5.6499023 v 4.0810547 q 0,0.6049805 0.010254,1.0561523 0.010254,0.4511719 0.1640625,0.8100586 0.1435547,0.3588867 0.5024415,0.5742188 0.3691406,0.2050781 1.0664062,0.2050781 0.2871094,0 0.7485352,-0.1230469 0.4716797,-0.1230468 0.65625,-0.2255859 h 0.3076172 z" />
  </g>
  <g
     class="cls-10"
     style="font-weight:700;font-size:21px;font-family:Poppins-SemiBold, Poppins;fill:#391510"
     id="text146"
     transform="translate(263.61 488) rotate(3.45)"
     aria-label="i">
    <path
       id="path340"
       style="font-weight:700;font-size:21px;font-family:Poppins-SemiBold, Poppins;fill:#391510"
       d="M 5.4345703,0 H 1.7431641 V -11.515137 H 5.4345703 Z M 5.5371094,-13.155762 H 1.640625 v -2.799316 h 3.8964844 z" />
  </g>
  <g
     class="cls-10"
     style="font-weight:700;font-size:21px;font-family:Poppins-SemiBold, Poppins;fill:#391510"
     id="text148"
     transform="translate(271.28 488.69) rotate(-0.76)"
     aria-label="m">
    <path
       id="path343"
       style="font-weight:700;font-size:21px;font-family:Poppins-SemiBold, Poppins;fill:#391510"
       d="M 13.001953,-8.1621094 V 0 H 9.2900391 v -5.7524414 q 0,-0.8408203 -0.041016,-1.425293 Q 9.2080078,-7.7724609 9.0234375,-8.1416016 8.8388672,-8.5107422 8.4594727,-8.6748047 8.090332,-8.8491211 7.4135742,-8.8491211 q -0.543457,0 -1.0561523,0.2255859 -0.5126953,0.2153321 -0.9228516,0.4614258 V 0 H 1.7431641 v -11.515137 h 3.6914062 v 1.271485 q 0.9536133,-0.748536 1.8251953,-1.168946 0.8715821,-0.42041 1.9277344,-0.42041 1.138184,0 2.009766,0.512695 0.871582,0.502442 1.363769,1.4868169 1.107422,-0.9331059 2.15332,-1.4663089 1.045899,-0.533203 2.050782,-0.533203 1.866211,0 2.830078,1.117676 0.974121,1.1176757 0.974121,3.2197265 V 0 h -3.711914 v -5.7524414 q 0,-0.8510742 -0.04102,-1.4355469 -0.03076,-0.5844726 -0.215332,-0.9536133 -0.174316,-0.3691406 -0.553711,-0.5332031 -0.379394,-0.1743164 -1.066406,-0.1743164 -0.461426,0 -0.902344,0.1640625 -0.440918,0.1538086 -1.07666,0.5229492 z" />
  </g>
  <g
     class="cls-10"
     style="font-weight:700;font-size:21px;font-family:Poppins-SemiBold, Poppins;fill:#391510"
     id="text150"
     transform="translate(295.19 488) rotate(-5.05)"
     aria-label="i">
    <path
       id="path346"
       style="font-weight:700;font-size:21px;font-family:Poppins-SemiBold, Poppins;fill:#391510"
       d="M 5.4345703,0 H 1.7431641 V -11.515137 H 5.4345703 Z M 5.5371094,-13.155762 H 1.640625 v -2.799316 h 3.8964844 z" />
  </g>
  <g
     class="cls-10"
     style="font-weight:700;font-size:21px;font-family:Poppins-SemiBold, Poppins;fill:#391510"
     id="text152"
     transform="translate(302.62 487.35) rotate(-7.67)"
     aria-label="z">
    <path
       id="path349"
       style="font-weight:700;font-size:21px;font-family:Poppins-SemiBold, Poppins;fill:#391510"
       d="M 11.679199,0 H 0.86132813 V -2.3686523 L 6.9316406,-8.8183594 H 1.1074219 V -11.515137 H 11.566406 V -9.1875 l -5.9780271,6.4394531 h 6.0908201 z" />
  </g>
  <g
     class="cls-10"
     style="font-weight:700;font-size:21px;font-family:Poppins-SemiBold, Poppins;fill:#391510"
     id="text154"
     transform="matrix(0.98, -0.2, 0.2, 0.98, 314.51, 485.76)"
     aria-label="a">
    <path
       id="path352"
       style="font-weight:700;font-size:21px;font-family:Poppins-SemiBold, Poppins;fill:#391510"
       d="m 8.7158203,-3.0043945 v -2.3994141 q -0.7485351,0.061523 -1.6201172,0.1743164 -0.871582,0.1025391 -1.3227539,0.2460938 -0.5537109,0.1743164 -0.8510742,0.5126953 -0.2871094,0.328125 -0.2871094,0.871582 0,0.3588867 0.061524,0.5844727 0.061523,0.2255859 0.3076171,0.430664 0.2358399,0.2050781 0.5639649,0.3076172 0.328125,0.092285 1.0253906,0.092285 0.553711,0 1.1176758,-0.225586 0.5742188,-0.2255859 1.0048828,-0.5947265 z m 0,1.7841797 Q 8.418457,-0.99462891 7.9775391,-0.67675781 7.5366211,-0.35888672 7.1469727,-0.17431641 6.6035156,0.07177734 6.019043,0.18457031 5.4345703,0.30761719 4.7373047,0.30761719 q -1.640625,0 -2.7480469,-1.01513672 -1.10742186,-1.01513667 -1.10742186,-2.59423827 0,-1.2612305 0.56396486,-2.0610352 0.5639648,-0.7998047 1.5996094,-1.2612304 1.0253906,-0.4614258 2.5429687,-0.65625 1.5175781,-0.1948243 3.1479492,-0.2871094 v -0.061523 q 0,-0.9536133 -0.7792969,-1.3125001 -0.7792968,-0.3691406 -2.296875,-0.3691406 -0.9125976,0 -1.9482421,0.328125 -1.0356446,0.3178711 -1.4868164,0.4921875 h -0.338379 v -2.7788086 q 0.5844727,-0.153809 1.8969727,-0.358887 1.3227539,-0.215332 2.6455078,-0.215332 3.1479492,0 4.5424808,0.974121 1.404785,0.9638676 1.404785,3.0351566 V 0 H 8.7158203 Z" />
  </g>
  <g
     class="cls-10"
     style="font-weight:700;font-size:21px;font-family:Poppins-SemiBold, Poppins;fill:#391510"
     id="text156"
     transform="translate(330.16 482.42) rotate(-15.06)"
     aria-label="t">
    <path
       id="path355"
       style="font-weight:700;font-size:21px;font-family:Poppins-SemiBold, Poppins;fill:#391510"
       d="m 9.1054688,-0.10253906 q -0.5947266,0.15380859 -1.2612305,0.23583984 -0.6665039,0.0922852 -1.6303711,0.0922852 -2.1533203,0 -3.2094727,-0.87158203 Q 1.9584961,-1.5175781 1.9584961,-3.6298828 V -9.0131836 H 0.44091797 V -11.515137 H 1.9584961 v -3.291504 h 3.6914062 v 3.291504 h 3.4555665 v 2.5019534 H 5.6499023 v 4.0810547 q 0,0.6049805 0.010254,1.0561523 0.010254,0.4511719 0.1640625,0.8100586 0.1435547,0.3588867 0.5024415,0.5742188 0.3691406,0.2050781 1.0664062,0.2050781 0.2871094,0 0.7485352,-0.1230469 0.4716797,-0.1230468 0.65625,-0.2255859 h 0.3076172 z" />
  </g>
  <g
     class="cls-10"
     style="font-weight:700;font-size:21px;font-family:Poppins-SemiBold, Poppins;fill:#391510"
     id="text158"
     transform="translate(339.56 479.83) rotate(-17.42)"
     aria-label="i">
    <path
       id="path358"
       style="font-weight:700;font-size:21px;font-family:Poppins-SemiBold, Poppins;fill:#391510"
       d="M 5.4345703,0 H 1.7431641 V -11.515137 H 5.4345703 Z M 5.5371094,-13.155762 H 1.640625 v -2.799316 h 3.8964844 z" />
  </g>
  <g
     class="cls-10"
     style="font-weight:700;font-size:21px;font-family:Poppins-SemiBold, Poppins;fill:#391510"
     id="text160"
     transform="translate(346.77 477.63) rotate(-20.52)"
     aria-label="o">
    <path
       id="path361"
       style="font-weight:700;font-size:21px;font-family:Poppins-SemiBold, Poppins;fill:#391510"
       d="m 13.514648,-5.7524414 q 0,2.840332 -1.661132,4.480957 -1.650879,1.63037112 -4.6450199,1.63037112 -2.9941406,0 -4.6552734,-1.63037112 -1.65087895,-1.640625 -1.65087895,-4.480957 0,-2.8608399 1.66113285,-4.4912106 1.6713867,-1.630371 4.6450195,-1.630371 3.0146489,0 4.6552739,1.640625 1.650878,1.6406246 1.650878,4.4809566 z m -4.54248,2.7993164 q 0.3588867,-0.440918 0.5332031,-1.0561523 0.1845703,-0.6254883 0.1845703,-1.7226563 0,-1.0151367 -0.1845703,-1.7021484 Q 9.3208008,-8.1210938 8.9926758,-8.53125 8.6645508,-8.9516602 8.203125,-9.1259766 7.7416992,-9.300293 7.2084961,-9.300293 q -0.5332031,0 -0.9536133,0.1435547 -0.4101562,0.1435547 -0.7895508,0.5742188 -0.3383789,0.3999023 -0.543457,1.0971679 -0.1948242,0.6972657 -0.1948242,1.753418 0,0.9433594 0.1743164,1.640625 0.1743164,0.6870117 0.5126953,1.1074219 0.328125,0.3999023 0.7792969,0.5844726 0.4614258,0.1845703 1.0458984,0.1845703 0.5024414,0 0.9536133,-0.1640625 0.4614258,-0.1743164 0.7792969,-0.5742187 z" />
  </g>
  <g
     class="cls-10"
     style="font-weight:700;font-size:21px;font-family:Poppins-SemiBold, Poppins;fill:#391510"
     id="text162"
     transform="translate(361.07 472.22) rotate(-24.76)"
     aria-label="n">
    <path
       id="path364"
       style="font-weight:700;font-size:21px;font-family:Poppins-SemiBold, Poppins;fill:#391510"
       d="M 13.30957,0 H 9.5976563 v -5.7114258 q 0,-0.6972656 -0.071777,-1.3842773 Q 9.4541016,-7.7929687 9.2797852,-8.1210938 9.074707,-8.5004883 8.6748047,-8.6748047 8.2851563,-8.8491211 7.5776367,-8.8491211 q -0.5024414,0 -1.0253906,0.1640625 -0.5126953,0.1640625 -1.1176758,0.5229492 V 0 H 1.7431641 v -11.515137 h 3.6914062 v 1.271485 q 0.984375,-0.769043 1.8867188,-1.1792 0.9125976,-0.410156 2.0200195,-0.410156 1.8662114,0 2.9121094,1.086914 1.056152,1.0869143 1.056152,3.2504885 z" />
  </g>
  <text
     id="text164"
     transform="translate(375.16 465.54) rotate(-27.8)"
     class="cls-10" />
  <g
     class="cls-10"
     style="font-weight:700;font-size:21px;font-family:Poppins-SemiBold, Poppins;fill:#391510"
     id="text166"
     transform="translate(381.01 462.47) rotate(-30.23)"
     aria-label="L">
    <path
       id="path367"
       style="font-weight:700;font-size:21px;font-family:Poppins-SemiBold, Poppins;fill:#391510"
       d="M 12.960938,0 H 1.9482422 v -15.268066 h 3.9375 v 12.314941 h 7.0751958 z" />
  </g>
  <g
     class="cls-10"
     style="font-weight:700;font-size:21px;font-family:Poppins-SemiBold, Poppins;fill:#391510"
     id="text168"
     transform="translate(390.88 456.72) rotate(-33.78)"
     aria-label="e">
    <path
       id="path370"
       style="font-weight:700;font-size:21px;font-family:Poppins-SemiBold, Poppins;fill:#391510"
       d="M 13.083984,-5.0756836 H 4.6347656 q 0.082031,1.3535156 1.0253906,2.0712891 0.9536133,0.7177734 2.7993165,0.7177734 1.1689453,0 2.2661133,-0.4204102 1.097168,-0.4204101 1.73291,-0.9023437 h 0.410156 v 2.96337891 q -1.250976,0.5024414 -2.358398,0.72802734 -1.107422,0.22558594 -2.4506837,0.22558594 -3.4658203,0 -5.3115234,-1.55859379 -1.84570315,-1.5585937 -1.84570315,-4.4399414 0,-2.8505859 1.74316405,-4.511719 1.753418,-1.671386 4.7988281,-1.671386 2.8095701,0 4.2246091,1.425293 1.415039,1.4150386 1.415039,4.0810542 z M 9.4130859,-7.2392578 q -0.030762,-1.1586914 -0.5742187,-1.7431641 -0.543457,-0.5844726 -1.6918945,-0.5844726 -1.0664063,0 -1.753418,0.5537109 -0.6870117,0.5537109 -0.769043,1.7739258 z" />
  </g>
  <g
     class="cls-10"
     style="font-weight:700;font-size:21px;font-family:Poppins-SemiBold, Poppins;fill:#391510"
     id="text170"
     transform="translate(403.19 448.43) rotate(-37.97)"
     aria-label="a">
    <path
       id="path373"
       style="font-weight:700;font-size:21px;font-family:Poppins-SemiBold, Poppins;fill:#391510"
       d="m 8.7158203,-3.0043945 v -2.3994141 q -0.7485351,0.061523 -1.6201172,0.1743164 -0.871582,0.1025391 -1.3227539,0.2460938 -0.5537109,0.1743164 -0.8510742,0.5126953 -0.2871094,0.328125 -0.2871094,0.871582 0,0.3588867 0.061524,0.5844727 0.061523,0.2255859 0.3076171,0.430664 0.2358399,0.2050781 0.5639649,0.3076172 0.328125,0.092285 1.0253906,0.092285 0.553711,0 1.1176758,-0.225586 0.5742188,-0.2255859 1.0048828,-0.5947265 z m 0,1.7841797 Q 8.418457,-0.99462891 7.9775391,-0.67675781 7.5366211,-0.35888672 7.1469727,-0.17431641 6.6035156,0.07177734 6.019043,0.18457031 5.4345703,0.30761719 4.7373047,0.30761719 q -1.640625,0 -2.7480469,-1.01513672 -1.10742186,-1.01513667 -1.10742186,-2.59423827 0,-1.2612305 0.56396486,-2.0610352 0.5639648,-0.7998047 1.5996094,-1.2612304 1.0253906,-0.4614258 2.5429687,-0.65625 1.5175781,-0.1948243 3.1479492,-0.2871094 v -0.061523 q 0,-0.9536133 -0.7792969,-1.3125001 -0.7792968,-0.3691406 -2.296875,-0.3691406 -0.9125976,0 -1.9482421,0.328125 -1.0356446,0.3178711 -1.4868164,0.4921875 h -0.338379 v -2.7788086 q 0.5844727,-0.153809 1.8969727,-0.358887 1.3227539,-0.215332 2.6455078,-0.215332 3.1479492,0 4.5424808,0.974121 1.404785,0.9638676 1.404785,3.0351566 V 0 H 8.7158203 Z" />
  </g>
  <g
     class="cls-10"
     style="font-weight:700;font-size:21px;font-family:Poppins-SemiBold, Poppins;fill:#391510"
     id="text172"
     transform="matrix(0.75, -0.66, 0.66, 0.75, 415.72, 438.46)"
     aria-label="r">
    <path
       id="path376"
       style="font-weight:700;font-size:21px;font-family:Poppins-SemiBold, Poppins;fill:#391510"
       d="M 10.089844,-7.9980469 H 9.7617188 q -0.2358399,-0.082031 -0.7587891,-0.1230469 -0.5229492,-0.041016 -0.871582,-0.041016 -0.7895508,0 -1.3945313,0.1025391 -0.6049805,0.1025391 -1.3022461,0.3486328 V 0 H 1.7431641 v -11.515137 h 3.6914062 v 1.6918948 q 1.2202149,-1.0458988 2.1225586,-1.3842778 0.9023438,-0.348632 1.6611328,-0.348632 0.1948242,0 0.440918,0.01025 0.2460937,0.01025 0.4306643,0.03076 z" />
  </g>
  <g
     class="cls-10"
     style="font-weight:700;font-size:21px;font-family:Poppins-SemiBold, Poppins;fill:#391510"
     id="text174"
     transform="translate(423.44 431.66) rotate(-45.03)"
     aria-label="n">
    <path
       id="path379"
       style="font-weight:700;font-size:21px;font-family:Poppins-SemiBold, Poppins;fill:#391510"
       d="M 13.30957,0 H 9.5976563 v -5.7114258 q 0,-0.6972656 -0.071777,-1.3842773 Q 9.4541016,-7.7929687 9.2797852,-8.1210938 9.074707,-8.5004883 8.6748047,-8.6748047 8.2851563,-8.8491211 7.5776367,-8.8491211 q -0.5024414,0 -1.0253906,0.1640625 -0.5126953,0.1640625 -1.1176758,0.5229492 V 0 H 1.7431641 v -11.515137 h 3.6914062 v 1.271485 q 0.984375,-0.769043 1.8867188,-1.1792 0.9125976,-0.410156 2.0200195,-0.410156 1.8662114,0 2.9121094,1.086914 1.056152,1.0869143 1.056152,3.2504885 z" />
  </g>
  <g
     class="cls-10"
     style="font-weight:700;font-size:21px;font-family:Poppins-SemiBold, Poppins;fill:#391510"
     id="text176"
     transform="matrix(0.67, -0.75, 0.75, 0.67, 434.35, 420.52)"
     aria-label="i">
    <path
       id="path382"
       style="font-weight:700;font-size:21px;font-family:Poppins-SemiBold, Poppins;fill:#391510"
       d="M 5.4345703,0 H 1.7431641 V -11.515137 H 5.4345703 Z M 5.5371094,-13.155762 H 1.640625 v -2.799316 h 3.8964844 z" />
  </g>
  <g
     class="cls-10"
     style="font-weight:700;font-size:21px;font-family:Poppins-SemiBold, Poppins;fill:#391510"
     id="text178"
     transform="matrix(0.63, -0.78, 0.78, 0.63, 439.42, 414.95)"
     aria-label="n">
    <path
       id="path385"
       style="font-weight:700;font-size:21px;font-family:Poppins-SemiBold, Poppins;fill:#391510"
       d="M 13.30957,0 H 9.5976563 v -5.7114258 q 0,-0.6972656 -0.071777,-1.3842773 Q 9.4541016,-7.7929687 9.2797852,-8.1210938 9.074707,-8.5004883 8.6748047,-8.6748047 8.2851563,-8.8491211 7.5776367,-8.8491211 q -0.5024414,0 -1.0253906,0.1640625 -0.5126953,0.1640625 -1.1176758,0.5229492 V 0 H 1.7431641 v -11.515137 h 3.6914062 v 1.271485 q 0.984375,-0.769043 1.8867188,-1.1792 0.9125976,-0.410156 2.0200195,-0.410156 1.8662114,0 2.9121094,1.086914 1.056152,1.0869143 1.056152,3.2504885 z" />
  </g>
  <g
     class="cls-10"
     style="font-weight:700;font-size:21px;font-family:Poppins-SemiBold, Poppins;fill:#391510"
     id="text180"
     transform="translate(449.25 402.59) rotate(-55.62)"
     aria-label="g">
    <path
       id="path388"
       style="font-weight:700;font-size:21px;font-family:Poppins-SemiBold, Poppins;fill:#391510"
       d="m 12.94043,-1.3227539 q 0,1.62011718 -0.461426,2.7275391 Q 12.017578,2.512207 11.187012,3.1376953 10.356445,3.7734375 9.1772461,4.050293 8.0083008,4.3374023 6.5317383,4.3374023 q -1.1997071,0 -2.3686524,-0.1435546 Q 3.0043945,4.050293 2.1533203,3.8452148 V 0.96386719 H 2.6044922 Q 3.28125,1.2304687 4.2553711,1.4458008 q 0.9741211,0.2255859 1.7431641,0.2255859 1.0253906,0 1.6611328,-0.1948242 Q 8.3056641,1.2919922 8.644043,0.94335938 8.9619141,0.61523437 9.1054688,0.10253906 9.2490234,-0.41015625 9.2490234,-1.1279297 v -0.215332 q -0.6665039,0.54345701 -1.4765625,0.86132811 -0.8100586,0.31787109 -1.8046875,0.31787109 -2.4199218,0 -3.7324218,-1.4560547 -1.31250004,-1.4560547 -1.31250004,-4.4296875 0,-1.425293 0.39990234,-2.4609375 0.3999023,-1.0356445 1.1279297,-1.8046878 0.6767578,-0.717773 1.6611328,-1.117675 0.9946289,-0.399903 2.0302734,-0.399903 0.9331055,0 1.6918946,0.225586 0.7690429,0.215332 1.3945312,0.604981 l 0.1333008,-0.512696 H 12.94043 Z M 9.2490234,-3.6298828 v -5.2192383 q -0.3178711,-0.1333008 -0.7792968,-0.2050781 -0.4614258,-0.082031 -0.8305664,-0.082031 -1.4560547,0 -2.1840821,0.8408203 -0.7280273,0.8305665 -0.7280273,2.3276368 0,1.6611328 0.6152344,2.3173828 0.6254882,0.65625 1.8457031,0.65625 0.5537109,0 1.086914,-0.1743164 0.5332032,-0.1743164 0.9741211,-0.4614258 z" />
  </g>
  <text
     id="text182"
     transform="translate(458.12 389.32) rotate(-58.71)"
     class="cls-10" />
  <g
     class="cls-10"
     style="font-weight:700;font-size:21px;font-family:Poppins-SemiBold, Poppins;fill:#391510"
     id="text184"
     transform="translate(461.59 383.67) rotate(-61.36)"
     aria-label="E">
    <path
       id="path391"
       style="font-weight:700;font-size:21px;font-family:Poppins-SemiBold, Poppins;fill:#391510"
       d="M 12.991699,0 H 1.9482422 V -15.268066 H 12.991699 v 2.953125 H 5.8652344 v 2.6352535 h 6.6137696 v 2.953125 H 5.8652344 v 3.7734375 h 7.1264646 z" />
  </g>
  <g
     class="cls-10"
     style="font-weight:700;font-size:21px;font-family:Poppins-SemiBold, Poppins;fill:#391510"
     id="text186"
     transform="translate(467.82 372.23) rotate(-65.29)"
     aria-label="n">
    <path
       id="path394"
       style="font-weight:700;font-size:21px;font-family:Poppins-SemiBold, Poppins;fill:#391510"
       d="M 13.30957,0 H 9.5976563 v -5.7114258 q 0,-0.6972656 -0.071777,-1.3842773 Q 9.4541016,-7.7929687 9.2797852,-8.1210938 9.074707,-8.5004883 8.6748047,-8.6748047 8.2851563,-8.8491211 7.5776367,-8.8491211 q -0.5024414,0 -1.0253906,0.1640625 -0.5126953,0.1640625 -1.1176758,0.5229492 V 0 H 1.7431641 v -11.515137 h 3.6914062 v 1.271485 q 0.984375,-0.769043 1.8867188,-1.1792 0.9125976,-0.410156 2.0200195,-0.410156 1.8662114,0 2.9121094,1.086914 1.056152,1.0869143 1.056152,3.2504885 z" />
  </g>
  <g
     class="cls-10"
     style="font-weight:700;font-size:21px;font-family:Poppins-SemiBold, Poppins;fill:#391510"
     id="text188"
     transform="matrix(0.35, -0.94, 0.94, 0.35, 474.32, 357.89)"
     aria-label="v">
    <path
       id="path397"
       style="font-weight:700;font-size:21px;font-family:Poppins-SemiBold, Poppins;fill:#391510"
       d="M 13.340332,-11.515137 8.9003906,0 H 4.7167969 L 0.30761719,-11.515137 H 4.2143555 l 2.6660156,7.9160159 2.6352539,-7.9160159 z" />
  </g>
  <g
     class="cls-10"
     style="font-weight:700;font-size:21px;font-family:Poppins-SemiBold, Poppins;fill:#391510"
     id="text190"
     transform="translate(479.21 344.48) rotate(-72.42)"
     aria-label="i">
    <path
       id="path400"
       style="font-weight:700;font-size:21px;font-family:Poppins-SemiBold, Poppins;fill:#391510"
       d="M 5.4345703,0 H 1.7431641 V -11.515137 H 5.4345703 Z M 5.5371094,-13.155762 H 1.640625 v -2.799316 h 3.8964844 z" />
  </g>
  <g
     class="cls-10"
     style="font-weight:700;font-size:21px;font-family:Poppins-SemiBold, Poppins;fill:#391510"
     id="text192"
     transform="translate(481.45 337.39) rotate(-74.82)"
     aria-label="r">
    <path
       id="path403"
       style="font-weight:700;font-size:21px;font-family:Poppins-SemiBold, Poppins;fill:#391510"
       d="M 10.089844,-7.9980469 H 9.7617188 q -0.2358399,-0.082031 -0.7587891,-0.1230469 -0.5229492,-0.041016 -0.871582,-0.041016 -0.7895508,0 -1.3945313,0.1025391 -0.6049805,0.1025391 -1.3022461,0.3486328 V 0 H 1.7431641 v -11.515137 h 3.6914062 v 1.6918948 q 1.2202149,-1.0458988 2.1225586,-1.3842778 0.9023438,-0.348632 1.6611328,-0.348632 0.1948242,0 0.440918,0.01025 0.2460937,0.01025 0.4306643,0.03076 z" />
  </g>
  <g
     class="cls-10"
     style="font-weight:700;font-size:21px;font-family:Poppins-SemiBold, Poppins;fill:#391510"
     id="text194"
     transform="translate(484.16 327.48) rotate(-78.3)"
     aria-label="o">
    <path
       id="path406"
       style="font-weight:700;font-size:21px;font-family:Poppins-SemiBold, Poppins;fill:#391510"
       d="m 13.514648,-5.7524414 q 0,2.840332 -1.661132,4.480957 -1.650879,1.63037112 -4.6450199,1.63037112 -2.9941406,0 -4.6552734,-1.63037112 -1.65087895,-1.640625 -1.65087895,-4.480957 0,-2.8608399 1.66113285,-4.4912106 1.6713867,-1.630371 4.6450195,-1.630371 3.0146489,0 4.6552739,1.640625 1.650878,1.6406246 1.650878,4.4809566 z m -4.54248,2.7993164 q 0.3588867,-0.440918 0.5332031,-1.0561523 0.1845703,-0.6254883 0.1845703,-1.7226563 0,-1.0151367 -0.1845703,-1.7021484 Q 9.3208008,-8.1210938 8.9926758,-8.53125 8.6645508,-8.9516602 8.203125,-9.1259766 7.7416992,-9.300293 7.2084961,-9.300293 q -0.5332031,0 -0.9536133,0.1435547 -0.4101562,0.1435547 -0.7895508,0.5742188 -0.3383789,0.3999023 -0.543457,1.0971679 -0.1948242,0.6972657 -0.1948242,1.753418 0,0.9433594 0.1743164,1.640625 0.1743164,0.6870117 0.5126953,1.1074219 0.328125,0.3999023 0.7792969,0.5844726 0.4614258,0.1845703 1.0458984,0.1845703 0.5024414,0 0.9536133,-0.1640625 0.4614258,-0.1743164 0.7792969,-0.5742187 z" />
  </g>
  <g
     class="cls-10"
     style="font-weight:700;font-size:21px;font-family:Poppins-SemiBold, Poppins;fill:#391510"
     id="text196"
     transform="translate(487.2 312.5) rotate(-82.51)"
     aria-label="n">
    <path
       id="path409"
       style="font-weight:700;font-size:21px;font-family:Poppins-SemiBold, Poppins;fill:#391510"
       d="M 13.30957,0 H 9.5976563 v -5.7114258 q 0,-0.6972656 -0.071777,-1.3842773 Q 9.4541016,-7.7929687 9.2797852,-8.1210938 9.074707,-8.5004883 8.6748047,-8.6748047 8.2851563,-8.8491211 7.5776367,-8.8491211 q -0.5024414,0 -1.0253906,0.1640625 -0.5126953,0.1640625 -1.1176758,0.5229492 V 0 H 1.7431641 v -11.515137 h 3.6914062 v 1.271485 q 0.984375,-0.769043 1.8867188,-1.1792 0.9125976,-0.410156 2.0200195,-0.410156 1.8662114,0 2.9121094,1.086914 1.056152,1.0869143 1.056152,3.2504885 z" />
  </g>
  <g
     class="cls-10"
     style="font-weight:700;font-size:21px;font-family:Poppins-SemiBold, Poppins;fill:#391510"
     id="text198"
     transform="translate(489.53 296.58) rotate(-88.68)"
     aria-label="m">
    <path
       id="path412"
       style="font-weight:700;font-size:21px;font-family:Poppins-SemiBold, Poppins;fill:#391510"
       d="M 13.001953,-8.1621094 V 0 H 9.2900391 v -5.7524414 q 0,-0.8408203 -0.041016,-1.425293 Q 9.2080078,-7.7724609 9.0234375,-8.1416016 8.8388672,-8.5107422 8.4594727,-8.6748047 8.090332,-8.8491211 7.4135742,-8.8491211 q -0.543457,0 -1.0561523,0.2255859 -0.5126953,0.2153321 -0.9228516,0.4614258 V 0 H 1.7431641 v -11.515137 h 3.6914062 v 1.271485 q 0.9536133,-0.748536 1.8251953,-1.168946 0.8715821,-0.42041 1.9277344,-0.42041 1.138184,0 2.009766,0.512695 0.871582,0.502442 1.363769,1.4868169 1.107422,-0.9331059 2.15332,-1.4663089 1.045899,-0.533203 2.050782,-0.533203 1.866211,0 2.830078,1.117676 0.974121,1.1176757 0.974121,3.2197265 V 0 h -3.711914 v -5.7524414 q 0,-0.8510742 -0.04102,-1.4355469 -0.03076,-0.5844726 -0.215332,-0.9536133 -0.174316,-0.3691406 -0.553711,-0.5332031 -0.379394,-0.1743164 -1.066406,-0.1743164 -0.461426,0 -0.902344,0.1640625 -0.440918,0.1538086 -1.07666,0.5229492 z" />
  </g>
  <g
     class="cls-10"
     style="font-weight:700;font-size:21px;font-family:Poppins-SemiBold, Poppins;fill:#391510"
     id="text200"
     transform="matrix(-0.05, -1, 1, -0.05, 489.96, 272.64)"
     aria-label="e">
    <path
       id="path415"
       style="font-weight:700;font-size:21px;font-family:Poppins-SemiBold, Poppins;fill:#391510"
       d="M 13.083984,-5.0756836 H 4.6347656 q 0.082031,1.3535156 1.0253906,2.0712891 0.9536133,0.7177734 2.7993165,0.7177734 1.1689453,0 2.2661133,-0.4204102 1.097168,-0.4204101 1.73291,-0.9023437 h 0.410156 v 2.96337891 q -1.250976,0.5024414 -2.358398,0.72802734 -1.107422,0.22558594 -2.4506837,0.22558594 -3.4658203,0 -5.3115234,-1.55859379 -1.84570315,-1.5585937 -1.84570315,-4.4399414 0,-2.8505859 1.74316405,-4.511719 1.753418,-1.671386 4.7988281,-1.671386 2.8095701,0 4.2246091,1.425293 1.415039,1.4150386 1.415039,4.0810542 z M 9.4130859,-7.2392578 q -0.030762,-1.1586914 -0.5742187,-1.7431641 -0.543457,-0.5844726 -1.6918945,-0.5844726 -1.0664063,0 -1.753418,0.5537109 -0.6870117,0.5537109 -0.769043,1.7739258 z" />
  </g>
  <g
     class="cls-10"
     style="font-weight:700;font-size:21px;font-family:Poppins-SemiBold, Poppins;fill:#391510"
     id="text202"
     transform="matrix(-0.13, -0.99, 0.99, -0.13, 489.1, 257.84)"
     aria-label="n">
    <path
       id="path418"
       style="font-weight:700;font-size:21px;font-family:Poppins-SemiBold, Poppins;fill:#391510"
       d="M 13.30957,0 H 9.5976563 v -5.7114258 q 0,-0.6972656 -0.071777,-1.3842773 Q 9.4541016,-7.7929687 9.2797852,-8.1210938 9.074707,-8.5004883 8.6748047,-8.6748047 8.2851563,-8.8491211 7.5776367,-8.8491211 q -0.5024414,0 -1.0253906,0.1640625 -0.5126953,0.1640625 -1.1176758,0.5229492 V 0 H 1.7431641 v -11.515137 h 3.6914062 v 1.271485 q 0.984375,-0.769043 1.8867188,-1.1792 0.9125976,-0.410156 2.0200195,-0.410156 1.8662114,0 2.9121094,1.086914 1.056152,1.0869143 1.056152,3.2504885 z" />
  </g>
  <g
     class="cls-10"
     style="font-weight:700;font-size:21px;font-family:Poppins-SemiBold, Poppins;fill:#391510"
     id="text204"
     transform="translate(486.97 242.31) rotate(-100.79)"
     aria-label="t">
    <path
       id="path421"
       style="font-weight:700;font-size:21px;font-family:Poppins-SemiBold, Poppins;fill:#391510"
       d="m 9.1054688,-0.10253906 q -0.5947266,0.15380859 -1.2612305,0.23583984 -0.6665039,0.0922852 -1.6303711,0.0922852 -2.1533203,0 -3.2094727,-0.87158203 Q 1.9584961,-1.5175781 1.9584961,-3.6298828 V -9.0131836 H 0.44091797 V -11.515137 H 1.9584961 v -3.291504 h 3.6914062 v 3.291504 h 3.4555665 v 2.5019534 H 5.6499023 v 4.0810547 q 0,0.6049805 0.010254,1.0561523 0.010254,0.4511719 0.1640625,0.8100586 0.1435547,0.3588867 0.5024415,0.5742188 0.3691406,0.2050781 1.0664062,0.2050781 0.2871094,0 0.7485352,-0.1230469 0.4716797,-0.1230468 0.65625,-0.2255859 h 0.3076172 z" />
  </g>
  <g
     class="cls-10"
     style="font-weight:700;font-size:21px;font-family:Poppins-SemiBold, Poppins;fill:#391510"
     id="text206"
     transform="matrix(-0.24, -0.97, 0.97, -0.24, 485.12, 232.62)"
     aria-label="s">
    <path
       id="path424"
       style="font-weight:700;font-size:21px;font-family:Poppins-SemiBold, Poppins;fill:#391510"
       d="m 11.750977,-3.6503906 q 0,1.7841797 -1.59961,2.88134763 -1.5996092,1.08691406 -4.3784178,1.08691406 -1.5380859,0 -2.7890625,-0.28710937 Q 1.7329102,-0.25634766 0.97412109,-0.60498047 V -3.6401367 H 1.3125 q 0.2768555,0.1948242 0.6357422,0.430664 0.3691406,0.225586 1.0356445,0.4921875 0.5742188,0.2358399 1.3022461,0.4101563 0.7280274,0.1640625 1.5585938,0.1640625 1.086914,0 1.6098632,-0.2358399 0.5229493,-0.2460937 0.5229493,-0.7177734 0,-0.4204101 -0.3076172,-0.6049805 Q 7.3623047,-3.8964844 6.5009766,-4.0708008 6.0908203,-4.1630859 5.3833008,-4.265625 4.6860352,-4.378418 4.1118164,-4.5322266 2.5429688,-4.9423828 1.7841797,-5.8037109 1.0253906,-6.675293 1.0253906,-7.9672852 q 0,-1.6611328 1.5688477,-2.7583008 1.5791015,-1.107422 4.3066406,-1.107422 1.2919922,0 2.4711914,0.266602 1.1894527,0.256347 1.8559567,0.553711 v 2.9121091 H 10.910156 Q 10.089844,-8.6645508 9.0336914,-9.0131836 7.987793,-9.3720703 6.9111328,-9.3720703 q -0.8920898,0 -1.5073242,0.2460937 -0.6049805,0.2460938 -0.6049805,0.6972657 0,0.4101562 0.2768555,0.6254882 0.2768555,0.2153321 1.3022461,0.4306641 0.5639648,0.112793 1.2099609,0.2255859 0.65625,0.1025391 1.3125,0.2666016 1.4560544,0.3793945 2.1533204,1.199707 0.697266,0.8100586 0.697266,2.0302735 z" />
  </g>
  <path
     id="path208"
     d="M279.41,217.59c-.68-1.18-.1-2.56,1.06-3.56a13.81,13.81,0,0,1,4.48-2.24A56.86,56.86,0,0,1,298.46,209c6.36-.54,12.81-.07,19.22-.18s13.1-.91,18.14-3.59"
     class="cls-11" />
  <path
     id="path210"
     d="M217.23,231.15V235c-10.54-5.08-23.42-6.94-36.63-4.91a8.29,8.29,0,0,0-6.83,6.45c-4.13,19.33.24,38.24,11.4,50.67A99.34,99.34,0,0,0,174.54,297c-1.67,1.8-3.21,3.64-4.67,5.49l-16.5,4.13,10.71,4.22q-2.21,3.61-4,7.23l-13.24,7.46,9.5,1.28a100.52,100.52,0,0,0-4.86,18.41c13.31-1.57,28.39.31,43.38,5.9h0q2.06.77,4.12,1.63l1.06.45,1.41.62c.94.42,1.89.85,2.83,1.31q1.19.57,2.35,1.17l.88.46,1.42.75,1,.58,1.22.68,1.12.66,1.08.64,1.19.74,1,.6,1.24.81.86.56,1.27.87.78.54,1.28.92.73.53,1.28,1,.66.51,1.29,1,.6.49,1.28,1.07.57.48,1.26,1.1.53.47,1.24,1.14.5.47,1.19,1.15.49.48,1.15,1.16.48.49,1.1,1.17.28.3,0,.06A51.3,51.3,0,0,0,267,402.57c3,4.24,12.59,15.19,24.24.52a51.27,51.27,0,0,0,33.6-25,103.11,103.11,0,0,1,31.89-23.59c2.54-1.23,5.1-2.33,7.67-3.33,15.28-5.85,30.69-7.83,44.26-6.24a97.82,97.82,0,0,0-8.63-27.19l6.15-3.95-8-1.87,5.86-3.77L394,305.83l6.57-4.22-13.34-3.12c-.51-.58-1-1.16-1.53-1.73a102.28,102.28,0,0,0-13.75-12.19,49.17,49.17,0,0,0,7.71-18.47l8-3.22-7.24-1.07,7.24-5.15h-6.87c.51-6.28-.12-10.85-1.53-17.48a8.29,8.29,0,0,0-6.83-6.45,65.32,65.32,0,0,0-29.23,2l.08-3.41"
     class="cls-11" />
  <path
     id="path212"
     d="M206.5,374.71a131,131,0,0,1,44.2,2.82"
     class="cls-12" />
  <path
     id="path214"
     d="M207,390.39a131,131,0,0,1,43.25-9.51"
     class="cls-12" />
  <path
     id="path216"
     d="M212.81,402.16a131,131,0,0,1,40.7-17.46"
     class="cls-12" />
  <path
     id="path218"
     d="M344,371.62a96,96,0,0,0-37.27,6.7"
     class="cls-12" />
  <path
     id="path220"
     d="M345.21,387.26s-17.68-6.92-37.74-5.65"
     class="cls-12" />
  <path
     id="path222"
     d="M341.46,399.48s-16.36-10.63-36.39-13.78"
     class="cls-12" />
</svg>
